<svg xmlns="http://www.w3.org/2000/svg" width="57" height="57" viewBox="0 0 57 57">
  <g id="Group_1979" data-name="Group 1979" transform="translate(-1123 -930)">
    <circle id="Ellipse_4" data-name="Ellipse 4" cx="28.5" cy="28.5" r="28.5" transform="translate(1123 930)" fill="#37393d"/>
    <g id="apple-svgrepo-com" transform="translate(1142 945.256)">
      <path id="Path_689" data-name="Path 689" d="M44.657,3.579A4.573,4.573,0,0,0,45.979,0a5.972,5.972,0,0,0-3.74,1.7A4.38,4.38,0,0,0,40.89,5.167,4.98,4.98,0,0,0,44.657,3.579Zm2.719,9.07a5.276,5.276,0,0,1,2.436-4.427,5.215,5.215,0,0,0-4.126-2.3c-1.758-.185-3.428,1.065-4.321,1.065S39.1,5.942,37.642,5.97a5.5,5.5,0,0,0-4.668,2.917c-1.991,3.559-.51,8.832,1.43,11.719.949,1.413,2.078,3,3.561,2.941,1.432-.057,1.971-.952,3.7-.952s2.212.952,3.724.924c1.538-.029,2.512-1.441,3.452-2.858A13,13,0,0,0,50.4,17.354,5.123,5.123,0,0,1,47.376,12.649Z" transform="translate(-32.029)" fill="#fff"/>
    </g>
  </g>
</svg>
