<svg xmlns="http://www.w3.org/2000/svg" xmlns:xlink="http://www.w3.org/1999/xlink" width="239" height="45.621" viewBox="0 0 239 47.621">
  <defs>
    <clipPath id="clip-path">
      <path id="Path_1243" data-name="Path 1243" d="M23.18-5.078A25.119,25.119,0,0,1,14.264-6.66a24.537,24.537,0,0,1-7.331-4.272,20.941,20.941,0,0,1-5.038-6.336A16.932,16.932,0,0,1,0-25.1a17.384,17.384,0,0,1,1.828-7.824,20.739,20.739,0,0,1,5.045-6.4A24.557,24.557,0,0,1,14.2-43.6,25.642,25.642,0,0,1,23.18-45.18a23.97,23.97,0,0,1,14.228,4.233l1.181.841-3.25,2.888-.7-.467a17.191,17.191,0,0,0-5.254-2.367,25.046,25.046,0,0,0-6.2-.722,21.346,21.346,0,0,0-7.335,1.243,19.207,19.207,0,0,0-5.838,3.375,15.778,15.778,0,0,0-3.9,4.979A13.594,13.594,0,0,0,4.7-25.053a13.477,13.477,0,0,0,1.408,6.072,15.964,15.964,0,0,0,3.9,4.93,20,20,0,0,0,5.9,3.376,21.953,21.953,0,0,0,7.272,1.19,25.006,25.006,0,0,0,5.92-.674,17.745,17.745,0,0,0,5.154-2.18l.641-.4,3.589,2.75-1.339.9A24.607,24.607,0,0,1,23.18-5.078" fill="none"/>
    </clipPath>
    <clipPath id="clip-path-2">
      <path id="Path_1245" data-name="Path 1245" d="M59.787-5.078q-.527,0-1.055-.023H43.568V-9.5H58.723a19.849,19.849,0,0,0,7.322-1.33A20.922,20.922,0,0,0,72-14.408a16.085,16.085,0,0,0,3.963-4.939,12.09,12.09,0,0,0,1.385-5.515,13.219,13.219,0,0,0-1.392-5.879,15.84,15.84,0,0,0-3.843-5.084,18.284,18.284,0,0,0-5.882-3.613,20.661,20.661,0,0,0-7.509-1.333H43.568v-4.4h15.2a23.768,23.768,0,0,1,9.251,1.589,22.941,22.941,0,0,1,7.418,4.494,21.028,21.028,0,0,1,4.91,6.537,17.649,17.649,0,0,1,1.807,7.694,15.787,15.787,0,0,1-1.947,7.434,22.261,22.261,0,0,1-5.087,6.41,25.187,25.187,0,0,1-7.4,4.48,21.947,21.947,0,0,1-7.932,1.46" fill="none"/>
    </clipPath>
    <clipPath id="clip-path-3">
      <path id="Path_1261" data-name="Path 1261" d="M0-.066H239V-47.687H0Z" fill="none"/>
    </clipPath>
    <clipPath id="clip-path-4">
      <rect id="Rectangle_10" data-name="Rectangle 10" width="152" height="48" transform="translate(88 -48)" fill="none"/>
    </clipPath>
    <clipPath id="clip-path-5">
      <path id="Path_1247" data-name="Path 1247" d="M88.38-3.825h32.365v-7.519H88.38Z" fill="none"/>
    </clipPath>
    <clipPath id="clip-path-6">
      <path id="Path_1249" data-name="Path 1249" d="M88.38-37.661h32.365V-45.18H88.38Z" fill="none"/>
    </clipPath>
    <clipPath id="clip-path-7">
      <path id="Path_1251" data-name="Path 1251" d="M88.38-21.37h32.365v-7.519H88.38Z" fill="none"/>
    </clipPath>
    <clipPath id="clip-path-8">
      <path id="Path_1254" data-name="Path 1254" d="M165.4-5.078h5.132l-17.383-40.1h-8.8l-17.389,40.1h5.143l15.311-35.189h2.67Z" fill="none"/>
    </clipPath>
    <clipPath id="clip-path-9">
      <path id="Path_1253" data-name="Path 1253" d="M0,0H239V-48H0Z" fill="none"/>
    </clipPath>
    <clipPath id="clip-path-10">
      <path id="Path_1257" data-name="Path 1257" d="M205.391-5.078H175.516v-40.1h4.745v35.7h25.13Z" fill="none"/>
    </clipPath>
    <clipPath id="clip-path-12">
      <path id="Path_1260" data-name="Path 1260" d="M238.258-18.89a7.868,7.868,0,0,0-2.113-3,9.112,9.112,0,0,0-3.138-1.91,24.3,24.3,0,0,0-3.724-1.177c-1.76-.447-3.491-.844-5.118-1.175a21.164,21.164,0,0,1-4.154-1.4,7.435,7.435,0,0,1-2.68-2.121,5.766,5.766,0,0,1-.941-3.566,5.279,5.279,0,0,1,.745-2.909,6.73,6.73,0,0,1,2.221-2.04,11.631,11.631,0,0,1,3.4-1.205,19.512,19.512,0,0,1,4.1-.338,19.936,19.936,0,0,1,4.188.538,15.885,15.885,0,0,1,3.713,1.238l.666.324,3.464-2.979-1.4-.827a19.024,19.024,0,0,0-4.983-2.009,24.44,24.44,0,0,0-4.909-.719v-3.519h-3.423v3.613a21.308,21.308,0,0,0-2.69.464,16.137,16.137,0,0,0-4.926,1.931,11.572,11.572,0,0,0-3.559,3.464,8.982,8.982,0,0,0-1.377,4.974,10.168,10.168,0,0,0,.605,3.463,10.984,10.984,0,0,0,1.74,3.1,12.719,12.719,0,0,0,2.714,2.441,12.594,12.594,0,0,0,3.678,1.507c1.755.479,3.532.914,5.308,1.3a21.1,21.1,0,0,1,4.535,1.366,7.7,7.7,0,0,1,3.021,2.1,5.052,5.052,0,0,1,1.069,3.454,4.927,4.927,0,0,1-.824,2.887,5.932,5.932,0,0,1-2.2,2.012,11.644,11.644,0,0,1-3.47,1.207,19.018,19.018,0,0,1-4.089.337,23.252,23.252,0,0,1-4.188-.487A15.892,15.892,0,0,1,215.8-9.794l-.666-.326-3.442,2.96,1.363.837a18.1,18.1,0,0,0,5.022,2.075,26.392,26.392,0,0,0,5.516.693c.156,0,.312,0,.468,0l.1,0V-.066h3.423V-3.813c.528-.079,1.053-.168,1.57-.282a17.237,17.237,0,0,0,4.833-1.918,10.747,10.747,0,0,0,3.567-3.463A8.977,8.977,0,0,0,239-14.513a11.508,11.508,0,0,0-.742-4.377" fill="none"/>
    </clipPath>
  </defs>
  <g id="Group_728" data-name="Group 728" transform="translate(0 47.687)">
    <g id="Group_714" data-name="Group 714" clip-path="url(#clip-path)">
      <path id="Path_1242" data-name="Path 1242" d="M-1-46.18H39.589v42.1H-1Z" fill="#4f3924"/>
    </g>
    <g id="Group_715" data-name="Group 715" clip-path="url(#clip-path-2)">
      <path id="Path_1244" data-name="Path 1244" d="M42.568-46.235H83.156V-4.078H42.568Z" fill="#4f3924"/>
    </g>
    <g id="Group_727" data-name="Group 727" clip-path="url(#clip-path-3)">
      <g id="Group_726" data-name="Group 726" style="mix-blend-mode: normal;isolation: isolate">
        <g id="Group_725" data-name="Group 725" clip-path="url(#clip-path-4)">
          <g id="Group_716" data-name="Group 716" clip-path="url(#clip-path-5)">
            <path id="Path_1246" data-name="Path 1246" d="M87.38-12.344h34.365v9.519H87.38Z" fill="#0083c2"/>
          </g>
          <g id="Group_717" data-name="Group 717" clip-path="url(#clip-path-6)">
            <path id="Path_1248" data-name="Path 1248" d="M87.38-46.18h34.365v9.519H87.38Z" fill="#0083c2"/>
          </g>
          <g id="Group_718" data-name="Group 718" clip-path="url(#clip-path-7)">
            <path id="Path_1250" data-name="Path 1250" d="M87.38-29.889h34.365v9.519H87.38Z" fill="red"/>
          </g>
          <g id="Group_720" data-name="Group 720" clip-path="url(#clip-path-8)">
            <g id="Group_719" data-name="Group 719" clip-path="url(#clip-path-9)">
              <path id="Path_1252" data-name="Path 1252" d="M125.969-46.18h45.568v42.1H125.969Z" fill="#4f3923"/>
            </g>
          </g>
          <g id="Group_722" data-name="Group 722" clip-path="url(#clip-path-10)">
            <g id="Group_721" data-name="Group 721" clip-path="url(#clip-path-9)">
              <path id="Path_1255" data-name="Path 1255" d="M174.516-46.18h31.875v42.1H174.516Z" fill="#503923"/>
            </g>
          </g>
          <g id="Group_724" data-name="Group 724" clip-path="url(#clip-path-12)">
            <g id="Group_723" data-name="Group 723" clip-path="url(#clip-path-9)">
              <path id="Path_1258" data-name="Path 1258" d="M210.615-48.687H240V.934H210.615Z" fill="#4e3924"/>
            </g>
          </g>
        </g>
      </g>
    </g>
  </g>
</svg>
