<svg
      xmlns="http://www.w3.org/2000/svg"
      width="35"
      height="35"
      viewBox="0 0 35 35"
    >
      <g
        id="Group_45624"
        data-name="Group 45624"
        transform="translate(-1026 -285)"
      >
        <circle
          id="Ellipse_6"
          data-name="Ellipse 6"
          cx="17.5"
          cy="17.5"
          r="17.5"
          transform="translate(1026 285)"
          fill="#f68c03"
        />
        <path
          id="Path_64"
          data-name="Path 64"
          d="M44.767,4.306l-1.822-.865.094-.2A1.749,1.749,0,0,0,42.211.915L40.642.169A1.747,1.747,0,0,0,38.314,1l-.094.2L36.4.332a1.916,1.916,0,0,0-2.55.908l-.466.982a.65.65,0,0,0,.309.867l4.827,2.293H32.132a.65.65,0,0,0-.648.7l.855,10.258a2.336,2.336,0,0,0,2.315,2.13h4.783a2.336,2.336,0,0,0,2.315-2.13l.756-9.068,1.835.871a.65.65,0,0,0,.867-.308l.466-.982A1.916,1.916,0,0,0,44.767,4.306Zm-5.278-2.75a.446.446,0,0,1,.595-.212l1.569.745a.447.447,0,0,1,.212.595l-.094.2L39.395,1.755Zm.966,14.679a1.028,1.028,0,0,1-1.018.937H34.653a1.028,1.028,0,0,1-1.018-.937l-.8-9.553h8.412ZM44.5,6.3l-.187.394-9.476-4.5.187-.394a.614.614,0,0,1,.817-.291l8.369,3.975A.614.614,0,0,1,44.5,6.3Z"
          transform="translate(1005.83 293.264)"
          fill="#fff"
        />
      </g>
    </svg>