<svg
      xmlns="http://www.w3.org/2000/svg"
      width="35"
      height="35"
      viewBox="0 0 35 35"
    >
      <g
        id="Group_45621"
        data-name="Group 45621"
        transform="translate(-946 -285)"
      >
        <circle
          id="Ellipse_4"
          data-name="Ellipse 4"
          cx="17.5"
          cy="17.5"
          r="17.5"
          transform="translate(946 285)"
          fill="#3294a9"
        />
        <path
          id="XMLID_71_"
          d="M21.2,10.052,18.757,7.61A.977.977,0,0,0,17.09,8.3V9.765H11.719V4.394h1.465a.977.977,0,0,0,.691-1.667L11.433.286a.977.977,0,0,0-1.381,0L7.61,2.727A.977.977,0,0,0,8.3,4.394H9.765V9.765H4.394V8.3A.977.977,0,0,0,2.727,7.61L.286,10.052a.977.977,0,0,0,0,1.381l2.441,2.441a.977.977,0,0,0,1.667-.691V11.719H9.765V17.09H8.3a.977.977,0,0,0-.691,1.667L10.052,21.2a.976.976,0,0,0,1.381,0l2.441-2.441a.977.977,0,0,0-.691-1.667H11.719V11.719H17.09v1.465a.977.977,0,0,0,1.667.691L21.2,11.433A.976.976,0,0,0,21.2,10.052Z"
          transform="translate(952.758 291.758)"
          fill="#fff"
        />
      </g>
    </svg>