<svg xmlns="http://www.w3.org/2000/svg" width="57" height="57" viewBox="0 0 57 57">
  <g id="Group_1980" data-name="Group 1980" transform="translate(-1041 -930)">
    <circle id="Ellipse_2" data-name="Ellipse 2" cx="28.5" cy="28.5" r="28.5" transform="translate(1041 930)" fill="#37393d"/>
    <path id="Path_693" data-name="Path 693" d="M271.7,265.086v3.636h6.013a5.725,5.725,0,0,1-6.013,4.572,6.693,6.693,0,0,1,0-13.385,5.981,5.981,0,0,1,4.228,1.632l2.874-2.77A10.176,10.176,0,0,0,271.7,256a10.6,10.6,0,1,0,0,21.2c6.121,0,10.179-4.3,10.179-10.361a9.7,9.7,0,0,0-.166-1.756Z" transform="translate(797.578 691.602)" fill="#fff"/>
  </g>
</svg>
