<svg
      xmlns="http://www.w3.org/2000/svg"
      width="26.975"
      height="26.975"
      viewBox="0 0 26.975 26.975"
     
    >
      <g
        id="Group_48"
        data-name="Group 48"
        transform="translate(-76.686 -791.686)"
      >
        <path
          id="Path_16"
          data-name="Path 16"
          d="M15.488,2A13.488,13.488,0,1,0,28.975,15.488,13.488,13.488,0,0,0,15.488,2Zm0,25.289a11.8,11.8,0,1,1,11.8-11.8,11.8,11.8,0,0,1-11.8,11.8Z"
          transform="translate(74.686 789.686)"
          fill="#a098ae"
        />
        <path
          id="Path_17"
          data-name="Path 17"
          d="M17.342,8.92a6.221,6.221,0,0,0-4.822,2.166.843.843,0,0,0-.27.6.776.776,0,0,0,.8.776.91.91,0,0,0,.6-.244A4.8,4.8,0,0,1,17.3,10.53,2.941,2.941,0,0,1,20.528,13.4v.042c0,1.863-1.484,2.9-3.827,3.077a.674.674,0,0,0-.641.776s0,1.956,0,2.318a.843.843,0,0,0,.843.759H17a.843.843,0,0,0,.759-.843V17.8c2.529-.354,4.577-1.686,4.577-4.451V13.3C22.307,10.774,20.334,8.92,17.342,8.92Z"
          transform="translate(73.077 788.599)"
          fill="#a098ae"
        />
        <circle
          id="Ellipse_3"
          data-name="Ellipse 3"
          cx="1.054"
          cy="1.054"
          r="1.054"
          transform="translate(88.935 811.032)"
          fill="#a098ae"
        />
      </g>
    </svg>