<svg
xmlns="http://www.w3.org/2000/svg"
width="33.333"
height="33.348"
viewBox="0 0 33.333 33.348"
>
<path
  id="Vector"
  d="M28.48,4.924c-.012-.013-.016-.03-.029-.043s-.03-.017-.043-.029a16.631,16.631,0,0,0-23.482,0c-.013.012-.031.016-.043.029s-.016.03-.029.043a16.667,16.667,0,1,0,23.627,0ZM16.667,30A13.308,13.308,0,0,1,6.275,25h6.692a4.939,4.939,0,0,0,7.4,0h6.692a13.308,13.308,0,0,1-10.392,5ZM15,21.667a1.668,1.668,0,1,1,.489,1.178A1.667,1.667,0,0,1,15,21.667Zm14.017,0-.017,0H21.667a4.992,4.992,0,0,0-3.333-4.693V11.667a1.667,1.667,0,1,0-3.333,0v5.307a4.992,4.992,0,0,0-3.333,4.693H4.333l-.017,0a13.218,13.218,0,0,1-.867-3.337H5A1.667,1.667,0,1,0,5,15H3.449a13.252,13.252,0,0,1,2.7-6.5L7.239,9.595A1.666,1.666,0,0,0,9.6,7.238L8.5,6.147a13.254,13.254,0,0,1,6.5-2.7V5a1.667,1.667,0,0,0,3.333,0V3.449a13.254,13.254,0,0,1,6.5,2.7L23.738,7.238a1.666,1.666,0,0,0,2.357,2.357L27.186,8.5a13.252,13.252,0,0,1,2.7,6.5H28.333a1.667,1.667,0,1,0,0,3.333h1.551a13.218,13.218,0,0,1-.867,3.337Z"
  fill="#a098ae"
/>
</svg>