<svg
      xmlns="http://www.w3.org/2000/svg"
      width="27.055"
      height="27.055"
      viewBox="0 0 27.055 27.055"
    >
      <path
        id="exit-svgrepo-com"
        d="M4.081,1A2.081,2.081,0,0,0,2,3.081V25.974a2.081,2.081,0,0,0,2.081,2.081H19.69a1.041,1.041,0,1,0,0-2.081H4.081V3.081H19.69A1.041,1.041,0,1,0,19.69,1ZM24.067,9.109A1.041,1.041,0,0,0,22.6,10.581L25.5,13.487H11.365a1.041,1.041,0,1,0,0,2.081H25.5L22.6,18.474a1.041,1.041,0,0,0,1.472,1.472l4.683-4.683a1.041,1.041,0,0,0,0-1.472Z"
        transform="translate(-2 -1)"
        fill="#a098ae"
      />
    </svg>