<svg xmlns="http://www.w3.org/2000/svg" xmlns:xlink="http://www.w3.org/1999/xlink" width="60.5" height="60.5" viewBox="0 0 83.5 83.5">
  <defs>
    <clipPath id="clip-path">
      <path id="Path_1237" data-name="Path 1237" d="M95.875-114.562a10.438,10.438,0,0,1-10.438,10.438A10.438,10.438,0,0,1,75-114.562,10.438,10.438,0,0,1,85.437-125a10.438,10.438,0,0,1,10.438,10.438" transform="translate(-75 125)" fill="none"/>
    </clipPath>
    <clipPath id="clip-path-2">
      <path id="Path_1239" data-name="Path 1239" d="M156.25-187.5v31.313h18.266A45.889,45.889,0,0,0,156.25-187.5" transform="translate(-156.25 187.5)" fill="none"/>
    </clipPath>
    <clipPath id="clip-path-3">
      <path id="Path_1241" data-name="Path 1241" d="M64.025-151.371a23.042,23.042,0,0,1-21.99,16.014,22.972,22.972,0,0,1-23.05-22.893,22.973,22.973,0,0,1,23.05-22.893,23.072,23.072,0,0,1,10.019,2.271V-198.8A42.406,42.406,0,0,0,42.035-200,41.893,41.893,0,0,0,0-158.25,41.894,41.894,0,0,0,42.035-116.5,41.961,41.961,0,0,0,83.5-151.371H64.025Z" transform="translate(0 200)" fill="none"/>
    </clipPath>
  </defs>
  <g id="Group_713" data-name="Group 713" transform="translate(0 200)">
    <g id="Group_710" data-name="Group 710" transform="translate(31.313 -168.688)" clip-path="url(#clip-path)">
      <path id="Path_1236" data-name="Path 1236" d="M74-126H95.71v21.71H74Z" transform="translate(-74.418 125.582)" fill="red"/>
    </g>
    <g id="Group_711" data-name="Group 711" transform="translate(65.234 -194.781)" clip-path="url(#clip-path-2)">
      <path id="Path_1238" data-name="Path 1238" d="M155.25-188.5h19.1v32.148h-19.1Z" transform="translate(-155.667 188.083)" fill="red"/>
    </g>
    <g id="Group_712" data-name="Group 712" transform="translate(0 -200)" clip-path="url(#clip-path-3)">
      <path id="Path_1240" data-name="Path 1240" d="M-1-201H83.335v84.335H-1Z" transform="translate(0.582 200.583)" fill="#0083c1"/>
    </g>
  </g>
</svg>
