<svg
      xmlns="http://www.w3.org/2000/svg"
      width="23.895"
      height="34.007"
      viewBox="0 0 23.895 34.007"
    >
      <g id="report-svgrepo-com" transform="translate(-72.313)">
        <g id="Group_29" data-name="Group 29" transform="translate(72.313)">
          <g id="Group_28" data-name="Group 28" transform="translate(0)">
            <path
              id="Path_29"
              data-name="Path 29"
              d="M95.544,2.478H89.28V.664A.664.664,0,0,0,88.615,0h-8.71a.664.664,0,0,0-.664.664V2.478H72.977a.664.664,0,0,0-.664.664v30.2a.664.664,0,0,0,.664.664H95.544a.664.664,0,0,0,.664-.664V3.142A.664.664,0,0,0,95.544,2.478ZM80.57,1.328h7.381V5.156H80.57Zm14.31,31.35H73.641V3.806h5.6V5.82a.664.664,0,0,0,.664.664h8.71a.664.664,0,0,0,.664-.664V3.806h5.6Z"
              transform="translate(-72.313)"
              fill="#a098ae"
            />
            <path
              id="Path_30"
              data-name="Path 30"
              d="M122.782,123.924h10.245a.664.664,0,0,0,0-1.328H122.782a.664.664,0,0,0,0,1.328Z"
              transform="translate(-118.636 -114.025)"
              fill="#a098ae"
            />
            <path
              id="Path_31"
              data-name="Path 31"
              d="M138.586,171.443h-15.8a.664.664,0,1,0,0,1.328h15.8a.664.664,0,1,0,0-1.328Z"
              transform="translate(-118.636 -159.456)"
              fill="#a098ae"
            />
            <path
              id="Path_32"
              data-name="Path 32"
              d="M138.586,220.291h-15.8a.664.664,0,1,0,0,1.328h15.8a.664.664,0,1,0,0-1.328Z"
              transform="translate(-118.636 -204.889)"
              fill="#a098ae"
            />
            <path
              id="Path_33"
              data-name="Path 33"
              d="M138.586,266.264h-15.8a.664.664,0,1,0,0,1.328h15.8a.664.664,0,1,0,0-1.328Z"
              transform="translate(-118.636 -247.648)"
              fill="#a098ae"
            />
            <path
              id="Path_34"
              data-name="Path 34"
              d="M317.213,123.924h2.21a.664.664,0,1,0,0-1.328h-2.21a.664.664,0,0,0,0,1.328Z"
              transform="translate(-299.473 -114.025)"
              fill="#a098ae"
            />
            <path
              id="Path_35"
              data-name="Path 35"
              d="M194.8,331.634a.664.664,0,0,0-.2-.472l-2.533-2.507a.664.664,0,0,0-.914-.02,4.188,4.188,0,0,0-.133,6.089.664.664,0,0,0,.935,0l2.645-2.618A.664.664,0,0,0,194.8,331.634Zm-3.257,1.631a2.856,2.856,0,0,1,.089-3.175l1.56,1.543Z"
              transform="translate(-181.563 -305.498)"
              fill="#a098ae"
            />
            <path
              id="Path_36"
              data-name="Path 36"
              d="M259.145,316.343h0a4.276,4.276,0,0,0-5.872-.126.664.664,0,0,0-.021.964l2.056,2.035-2.168,2.146a.664.664,0,0,0,0,.944,4.258,4.258,0,0,0,7.253-2.982,4.168,4.168,0,0,0-1.247-2.981Zm-4.4.447a2.959,2.959,0,0,1,2.933.079l-1.426,1.412Zm1.4,5.419a2.93,2.93,0,0,1-1.536-.43l2.63-2.6,1.389-1.375a2.839,2.839,0,0,1,.439,1.523A2.907,2.907,0,0,1,256.143,322.209Z"
              transform="translate(-240.314 -293.08)"
              fill="#a098ae"
            />
            <path
              id="Path_37"
              data-name="Path 37"
              d="M209.072,34.2h-2.258a.664.664,0,1,0,0,1.328h2.258a.664.664,0,1,0,0-1.328Z"
              transform="translate(-196.793 -31.809)"
              fill="#a098ae"
            />
          </g>
        </g>
      </g>
    </svg>