<svg
      id="support-svgrepo-com"
      xmlns="http://www.w3.org/2000/svg"
      width="37.524"
      height="37.524"
      viewBox="0 0 37.524 37.524"
    >
      <g id="Group_4" data-name="Group 4" transform="translate(0)">
        <g id="Group_3" data-name="Group 3">
          <path
            id="Path_6"
            data-name="Path 6"
            d="M108.455,334.492a.782.782,0,0,0-1.1.092c-.108.127-.214.258-.316.388a.782.782,0,1,0,1.23.965c.091-.116.185-.232.281-.345A.782.782,0,0,0,108.455,334.492Z"
            transform="translate(-99.037 -309.806)"
            fill="#00b3ee"
          />
          <path
            id="Path_7"
            data-name="Path 7"
            d="M321.919,106.553a.782.782,0,0,0,1.1-.074c.108-.123.206-.246.292-.367a.782.782,0,1,0-1.269-.914c-.058.08-.126.165-.2.251A.782.782,0,0,0,321.919,106.553Z"
            transform="translate(-298.078 -97.188)"
            fill="#00b3ee"
          />
          <path
            id="Path_8"
            data-name="Path 8"
            d="M36.744,32.833H35.553a16.793,16.793,0,0,0-8.472-13.824c.1-.264.195-.558.285-.888h1.612a2.662,2.662,0,0,0,2.659-2.659V13a2.662,2.662,0,0,0-2.659-2.659H28.7a8.608,8.608,0,0,0-.215-2.907,10.489,10.489,0,0,0-3.72-5.477,10.184,10.184,0,0,0-12,0,10.49,10.49,0,0,0-3.72,5.477,8.61,8.61,0,0,0-.215,2.907H8.55A2.662,2.662,0,0,0,5.891,13v2.463A2.662,2.662,0,0,0,8.55,18.121h1.611c.09.33.185.624.285.888A16.793,16.793,0,0,0,1.975,32.833H.784a.782.782,0,1,0,0,1.564H7.863l.771,2.57a.782.782,0,0,0,.749.557H28.145a.782.782,0,0,0,.749-.557l.771-2.57h7.079a.782.782,0,0,0,0-1.564ZM27.908,15.488c.041-.249.1-.572.175-.946.148-.77.324-1.689.455-2.639h.44a1.1,1.1,0,0,1,1.1,1.1v2.463a1.1,1.1,0,0,1-1.1,1.1H27.719C27.782,16.228,27.845,15.872,27.908,15.488ZM8.55,16.558h0a1.1,1.1,0,0,1-1.1-1.1V13a1.1,1.1,0,0,1,1.1-1.1h.44c.131.95.307,1.868.455,2.638.072.374.134.7.175.947.063.385.126.74.189,1.07Zm1.838-6.315a7.11,7.11,0,0,1,.152-2.363,8.511,8.511,0,0,1,16.447,0,8.5,8.5,0,0,1,.093,3.054.778.778,0,0,0-.023.186c0,.006,0,.011,0,.017-.129,1.122-.346,2.254-.51,3.109-.074.384-.137.716-.182.986-.109.662-.211,1.221-.314,1.7a9.066,9.066,0,0,1-5.108,1.935.781.781,0,0,0-.772-.665H18.764a.782.782,0,0,0-.782.782v.625c0,.008,0,.017,0,.025s0,.031,0,.047,0,.021,0,.032,0,.03.007.044.005.023.008.035.006.026.01.039.008.025.012.037.008.023.013.034.011.025.017.037l.015.031c.006.012.013.024.02.036l.018.029.023.033.021.029.024.028.026.028.025.024.03.027.026.021.034.025.028.018.036.022.032.016.036.017.037.015.034.012.043.012.032.008.046.008.025,0,.015,0h.006a11,11,0,0,0,1.357.083,12.284,12.284,0,0,0,5.062-1.093,5.97,5.97,0,0,1-1.553,1.216c-.291.185-.62.394-.986.642a7.617,7.617,0,0,1-3.8,1.092,7.617,7.617,0,0,1-3.8-1.091c-.366-.248-.7-.457-.986-.642a4.187,4.187,0,0,1-2.429-3.348.776.776,0,0,0-.036-.158c-.114-.511-.227-1.119-.348-1.854-.044-.27-.108-.6-.182-.987-.132-.687-.3-1.552-.425-2.447a25.3,25.3,0,0,0,6.586-1.715l.513,1.232c.052.126.1.237.134.333.173.44.336.855.825,1.02a1.058,1.058,0,0,0,.345.057,3.159,3.159,0,0,0,.961-.235c.11-.038.234-.08.374-.126a13.375,13.375,0,0,0,2.661-1.4.782.782,0,1,0-.866-1.3A12.013,12.013,0,0,1,19.8,10.881c-.146.048-.275.092-.389.131l-.173.059c-.041-.1-.087-.222-.143-.356l-.849-2.037A.782.782,0,0,0,17.1,8.324C15.41,9.427,11.941,10.022,10.388,10.243ZM28.337,33.381v0l-.773,2.576H25.79l.325-1.215a.782.782,0,1,0-1.51-.4l-.434,1.619H9.965l-.771-2.571,0-.012-1.1-3.672H9.812l.434,1.619a.782.782,0,0,0,1.51-.4l-.325-1.215H29.44Zm1.8-.548,1.105-3.684a.782.782,0,0,0-.749-1.006H7.038a.782.782,0,0,0-.749,1.006l1.105,3.684H3.54a15.181,15.181,0,0,1,7.667-12.458,5.71,5.71,0,0,0,1.255,1.1A13.757,13.757,0,0,0,10.3,22.864a.782.782,0,1,0,.967,1.228,12.193,12.193,0,0,1,1.978-1.268l.724-.371.139.093.048.03a9.168,9.168,0,0,0,4.607,1.314h0a9.168,9.168,0,0,0,4.607-1.315l.048-.03c.357-.242.684-.45.972-.633a7.621,7.621,0,0,0,1.93-1.537,15.181,15.181,0,0,1,7.667,12.458H30.134Z"
            transform="translate(-0.002)"
            fill="#00b3ee"
          />
          <path
            id="Path_9"
            data-name="Path 9"
            d="M148.676,446.469a.782.782,0,0,0-.553.958l.091.34a.782.782,0,0,0,1.51-.4l-.091-.34A.782.782,0,0,0,148.676,446.469Z"
            transform="translate(-137.243 -413.723)"
            fill="#00b3ee"
          />
          <path
            id="Path_10"
            data-name="Path 10"
            d="M344.609,425.442a.781.781,0,0,0,.958-.552l.091-.34a.782.782,0,1,0-1.51-.405l-.091.34A.782.782,0,0,0,344.609,425.442Z"
            transform="translate(-318.816 -392.522)"
            fill="#00b3ee"
          />
        </g>
      </g>
    </svg>