<svg
      xmlns="http://www.w3.org/2000/svg"
      width="80.882"
      height="74.761"
      viewBox="0 0 80.882 74.761"
    >
      <g
        id="Group_45644"
        data-name="Group 45644"
        transform="translate(-918 -390)"
      >
        <path
          id="Path_58"
          data-name="Path 58"
          d="M65.78,37.926a23.429,23.429,0,0,0-43.41-7.784,13.421,13.421,0,0,0-2.462-.233A12.841,12.841,0,0,0,7.085,42.733a14.017,14.017,0,0,0,.266,2.661A17.844,17.844,0,0,0,0,59.781,19.077,19.077,0,0,0,4.84,72.4a17.274,17.274,0,0,0,11.975,6.021H31.252a2.245,2.245,0,1,0,0-4.491H17.015c-6.8-.416-12.524-6.886-12.524-14.171a13.331,13.331,0,0,1,6.6-11.476,2.264,2.264,0,0,0,.981-2.728,8.148,8.148,0,0,1-.5-2.861,8.348,8.348,0,0,1,8.333-8.333,8.19,8.19,0,0,1,2.844.5,2.256,2.256,0,0,0,2.811-1.148,18.937,18.937,0,0,1,35.975,6.237,2.243,2.243,0,0,0,1.863,2,16.089,16.089,0,0,1,12.99,15.9c0,8.266-6.5,15.451-14.52,16.067H49.614a2.245,2.245,0,1,0,0,4.491H62.121A19.9,19.9,0,0,0,75.46,71.822a20.7,20.7,0,0,0-9.68-33.9Z"
          transform="translate(918 371.6)"
          fill="#b0b6b8"
        />
        <path
          id="Path_59"
          data-name="Path 59"
          d="M185.83,201.134a2.239,2.239,0,0,0,0-3.177l-11.892-11.892a2.272,2.272,0,0,0-1.58-.665,2.2,2.2,0,0,0-1.58.665l-11.892,11.892a2.254,2.254,0,0,0,1.58,3.842,2.191,2.191,0,0,0,1.58-.665l8.067-8.067V230.14a2.245,2.245,0,1,0,4.491,0V193.067l8.067,8.067A2.219,2.219,0,0,0,185.83,201.134Z"
          transform="translate(786.091 232.375)"
          fill="#b0b6b8"
        />
      </g>
    </svg>