<svg  viewBox="0 0 348 92" width="348" xmlns="http://www.w3.org/2000/svg" xmlns:xlink="http://www.w3.org/1999/xlink"><clipPath id="a"><path d="m0 0h348v92h-348z"/></clipPath><g clip-path="url(#a)" fill="#0061af"><path d="m18.549 16.583 4.389 5.737h-2.738l-3.966-5.462c-.235 0-.737.039-1.27.039h-8.727l-1.16 5.423h-2.453l4.232-19.969h11.85c7.006 0 8.848 2.155 7.735 7.382-.886 4.2-2.853 6.16-7.892 6.85m-.729-12.5h-8.848l-2.351 11.081h8.464c5.854 0 8-1.348 8.895-5.462.846-3.966-.392-5.619-6.16-5.619" transform="translate(-1.637 20.111)"/><path d="m32.677 22.516c-9.154 0-10.5-3.08-8.966-10.235 1.497-7.163 4.115-10.081 13.237-10.081 9.083 0 10.509 3 9 10.235-1.5 6.965-4.148 10.081-13.271 10.081m4.044-18.628c-7.273 0-9.389 2.735-10.619 8.5-1.191 5.776-.384 8.425 6.81 8.425 7.312 0 9.428-2.853 10.619-8.542 1.223-5.69.384-8.386-6.81-8.386" transform="translate(3.71 20.071)"/><path d="m62.378 22.272-.964-4h-15.776l-2.618 4h-2.805l13.307-19.89h6.544l4.812 19.89zm-4.2-18.237h-3.23l-8.315 12.626h14.467z" transform="translate(8.147 20.119)"/><path d="m74.065 22.241c-1.16 0-4.969.039-4.969.039h-7.421l4.232-19.929h10.854c6.85 0 10.846 1 8.926 10.118-1.5 7.045-4.232 9.773-11.622 9.773m2.422-18.159h-8.464l-3.5 16.466h9.31c6 0 8.2-2.5 9.428-8.2 1.466-7-1.105-8.268-6.771-8.268" transform="translate(13.732 20.111)"/><path d="m100.821 16.238 3.346 6.082h-6.191l-2.343-5.384h-6.081l-1.152 5.383h-5.62l4.31-19.969h12.125c6.693 0 8.582 2.038 7.469 7.194-.784 3.73-2.359 5.776-5.862 6.693m-3.888-10.078h-5.118l-1.5 7.006h4.964c3.966 0 5.235-.846 5.776-3.386.533-2.508-.2-3.621-4.122-3.621" transform="translate(19.225 20.111)"/><path d="m123.064 22.742-5.118-1.113c-.65.149-7.006.846-8.809.846-5.737 0-6.387-3.276-5.157-9.044l2.39-11.082h5.5l-2.39 11.238c-.65 3.041-.078 4.655 2.539 4.616l6.544-.071 3.386-15.776h5.509z" transform="translate(24.607 20.111)"/><path d="m145.162 22.272h-8.809l-4.733-16.082h-.274l-3.425 16.082h-5.421l4.271-19.89h8.966l4.577 16.042h.235l3.461-16.042h5.423z" transform="translate(29.563 20.119)"/><path d="m166.044 22.272h-8.817l-4.727-16.082h-.274l-3.426 16.082h-5.42l4.271-19.89h8.965l4.577 16.042h.235l3.464-16.042h5.423z" transform="translate(34.998 20.119)"/><path d="m186.056 2.556h-17.272l-4.193 19.671h17.241l.071-3.73h-11.027l.909-4.373h10.846l.721-3.5h-10.807l.956-4.334h11z" transform="translate(40.518 20.165)"/><path d="m204.746 9.61c1.105-5.094-.76-7.116-7.382-7.116h-11.983l-4.255 19.749h5.549l1.144-5.329h6.011l2.32 5.329h6.129l-3.307-6.011c3.456-.917 5.016-2.931 5.776-6.622m-5.556.227c-.533 2.508-1.787 3.346-5.705 3.346h-4.906l1.481-6.928h5.063c3.879.008 4.6 1.113 4.067 3.582" transform="translate(44.822 20.148)"/><path d="m276.866 7.935a1.713 1.713 0 0 1 1.826 1.92 2.33 2.33 0 0 1 -2.328 1.951 1.728 1.728 0 0 1 -1.834-1.951 2.316 2.316 0 0 1 2.32-1.92zm-.07.313a1.891 1.891 0 0 0 -1.857 1.607 1.407 1.407 0 0 0 1.481 1.622 1.862 1.862 0 0 0 1.85-1.607 1.4 1.4 0 0 0 -1.45-1.622z" transform="translate(69.129 21.565)"/><path d="m276.914 10.114.306.65h-.47l-.251-.588h-.658l-.118.588h-.431l.462-2.171h1.168c.5 0 .792.282.69.768a.835.835 0 0 1 -.698.753zm-.486-1.23-.313-.008-.215 1.011h.282c.674 0 .893-.071.98-.5.097-.425-.062-.503-.734-.503z" transform="translate(69.332 21.737)"/><path d="m221.233 17.585h-4.671l-.662 3.015h-2.429l2.7-12.618h7.335c4.569 0 5.588 1.654 4.914 4.914-.72 3.325-2.595 4.689-7.187 4.689zm1.481-7.931h-4.5l-1.34 6.27h4.373c3.135 0 4.3-.948 4.741-3.088.472-2.109-.163-3.182-3.274-3.182z" transform="translate(53.242 21.578)"/><path d="m232.511 20.722c-5.76 0-6.567-1.92-5.588-6.418.948-4.522 2.625-6.418 8.362-6.418s6.591 1.9 5.643 6.418c-.956 4.396-2.657 6.418-8.417 6.418zm2.429-11.207c-3.864 0-4.984 1.677-5.643 4.788s-.266 4.788 3.574 4.788c3.887 0 5.008-1.724 5.666-4.788.635-3.064.291-4.788-3.597-4.788z" transform="translate(56.65 21.552)"/><path d="m249.8 16.858 2.453 3.746h-2.7l-2.022-3.456s-.337.024-.682.024h-4.522l-.727 3.428h-2.429l2.7-12.618h7.555c4.3 0 5.447 1.317 4.741 4.569-.525 2.575-1.692 3.868-4.367 4.307zm-1.387-7.2h-4.5l-1.238 5.862h4.373c3.135 0 4.232-.705 4.694-2.845.443-2.118-.216-3.02-3.327-3.02z" transform="translate(59.931 21.576)"/><path d="m264.268 9.632h-4.694l-2.335 10.94h-2.382l2.312-10.94h-4.669l-.071-1.654h12.594z" transform="translate(63.38 21.576)"/><path d="m269.578 9.718 6.1-.047.784-1.693-6.4.008c-3.55.047-6.442.65-7.1 3.723-.556 2.594 1.121 3.292 3.989 3.409l3.331.141c1.5.047 2.751.118 2.383 1.8-.392 1.732-1.583 1.85-3.864 1.85h-6.9l-.846 1.685 7.414-.024c3.5 0 5.933-.094 6.685-3.534.658-3.1-1.411-3.221-3.887-3.339l-3.135-.165c-1.873-.071-3.017-.313-2.7-1.779.345-1.588 1.905-1.996 4.146-2.035z" transform="translate(65.625 21.576)"/><path d="m209.29 9.718 6.1-.047.784-1.693-6.395.008c-3.55.047-6.442.65-7.1 3.723-.556 2.594 1.121 3.292 3.989 3.409l3.331.141c1.5.047 2.751.118 2.382 1.8-.392 1.732-1.583 1.85-3.864 1.85h-6.9l-.846 1.685 7.414-.024c3.5 0 5.933-.094 6.685-3.534.658-3.1-1.411-3.221-3.887-3.339l-3.135-.165c-1.873-.071-3.017-.313-2.7-1.779.333-1.588 1.901-1.996 4.142-2.035z" transform="translate(49.933 21.576)"/><path d="m340.837 25.029-339-.055.172-.815 339 .055z" transform="translate(-1.841 25.787)"/><path d="m128.593 41.977.737-5.141c.165-1.121.392-2.657.666-4h-.047c-.572 1.277-1.223 2.688-1.826 3.84l-2.712 5.172h-1.466l-.572-5.094c-.133-1.215-.227-2.625-.29-3.926h-.031c-.29 1.246-.619 2.9-.9 4l-1.252 5.141h-1.763l2.79-10.933h2.516l.588 5.11c.078.972.2 2.108.212 3.143h.063c.392-1.034.917-2.187 1.387-3.127l2.665-5.125h2.542l-1.45 10.933h-1.857z" transform="translate(28.687 27.578)"/><path d="m133.058 38.858-1.5 3.111h-2.022l5.517-10.933h2.382l1.387 10.933h-1.991l-.313-3.111zm3.342-1.458-.313-2.727c-.047-.58-.118-1.426-.165-2.077h-.031c-.29.65-.588 1.426-.9 2.077l-1.34 2.727z" transform="translate(31.393 27.578)"/><path d="m140.5 31.043h1.881l-.964 5.078h.063c.345-.47.705-.862 1.027-1.246l3.425-3.824h2.368l-4.538 4.718 2.68 6.215h-2.077l-2.095-5.024-1.238 1.152-.752 3.871h-1.88z" transform="translate(33.701 27.579)"/><path d="m152.878 37.108h-3.95l-.619 3.26h4.444l-.313 1.607h-6.348l2.092-10.933h6.105l-.313 1.607h-4.193l-.556 2.868h3.966z" transform="translate(35.704 27.579)"/><path d="m162.628 37.108h-3.95l-.619 3.26h4.441l-.313 1.607h-6.348l2.092-10.933h6.105l-.313 1.607h-4.193l-.556 2.868h3.966z" transform="translate(38.241 27.579)"/><path d="m164.939 41.975-1.356-10.933h1.944l.635 6.019c.133 1.136.2 2.014.243 2.955h.031c.36-.893.784-1.9 1.356-3.033l2.939-5.933h2.108l-5.729 10.933h-2.171z" transform="translate(40.256 27.579)"/><path d="m177.6 37.108h-3.95l-.619 3.26h4.444l-.313 1.607h-6.348l2.092-10.933h6.105l-.313 1.607h-4.193l-.556 2.868h3.966z" transform="translate(42.139 27.579)"/><path d="m179.784 31.239a13 13 0 0 1 2.712-.259 4.759 4.759 0 0 1 2.759.713 2.318 2.318 0 0 1 1.042 1.975 3.292 3.292 0 0 1 -2.547 3.127l-.016.047c.721.274 1.027 1.034 1.129 2.077a18.489 18.489 0 0 0 .392 3.064h-1.959a20.665 20.665 0 0 1 -.29-2.61c-.078-1.395-.588-1.9-1.6-1.9h-.933l-.862 4.506h-1.881zm.964 4.8h1.074a2.226 2.226 0 0 0 2.484-2.092c0-1-.8-1.458-1.881-1.458a3.94 3.94 0 0 0 -1.011.094z" transform="translate(43.939 27.563)"/><path d="m187.129 41.974.862-4.491-2.14-6.434h2.022l.862 3.111c.243.94.36 1.426.455 1.912h.031c.29-.517.65-1.136 1.144-1.944l1.975-3.08h2.249l-4.718 6.4-.862 4.522z" transform="translate(46.052 27.581)"/><path d="m204.825 41.977.737-5.141c.165-1.121.392-2.657.666-4h-.047c-.572 1.277-1.223 2.688-1.826 3.84l-2.712 5.172h-1.466l-.572-5.094c-.133-1.215-.227-2.625-.29-3.926h-.031c-.29 1.246-.619 2.9-.9 4l-1.254 5.141h-1.763l2.79-10.933h2.516l.588 5.11c.078.972.2 2.108.212 3.143h.063c.392-1.034.917-2.187 1.387-3.127l2.665-5.125h2.547l-1.45 10.933h-1.857z" transform="translate(48.529 27.578)"/><path d="m210.409 31.043-2.092 10.933h-1.917l2.1-10.933z" transform="translate(51.401 27.579)"/><path d="m212.321 31.043h1.912l-1.779 9.271h4.326l-.313 1.654h-6.238z" transform="translate(52.397 27.579)"/><path d="m223.551 37.108h-3.951l-.619 3.26h4.444l-.314 1.607h-6.348l2.092-10.933h6.105l-.313 1.607h-4.193l-.556 2.868h3.966z" transform="translate(54.098 27.579)"/><path d="m234.394 41.685a7.474 7.474 0 0 1 -2.876.486 4.314 4.314 0 0 1 -4.687-4.592 6.562 6.562 0 0 1 2.578-5.384 6.633 6.633 0 0 1 4.1-1.3 4.856 4.856 0 0 1 2.4.5l-.556 1.52a4.762 4.762 0 0 0 -2.077-.392 4.3 4.3 0 0 0 -2.806 1 5.041 5.041 0 0 0 -1.583 3.809 2.888 2.888 0 0 0 3.113 3.217 5.463 5.463 0 0 0 2.2-.423z" transform="translate(56.718 27.541)"/><path d="m244.638 35.428a7.471 7.471 0 0 1 -1.991 5.219 5.5 5.5 0 0 1 -3.934 1.544 4.178 4.178 0 0 1 -4.326-4.506 7.459 7.459 0 0 1 2.053-5.251 5.592 5.592 0 0 1 3.871-1.528c2.94-.006 4.327 2.022 4.327 4.522zm-6.724-2a6.341 6.341 0 0 0 -1.52 4.154c0 1.654.752 3.017 2.594 3.017a2.994 2.994 0 0 0 2.14-.925 6.514 6.514 0 0 0 1.489-4.185c0-1.442-.509-3-2.531-3a3.057 3.057 0 0 0 -2.172.94z" transform="translate(58.685 27.544)"/><path d="m247.29 31.043-1.223 6.371a7.1 7.1 0 0 0 -.133 1.332 1.686 1.686 0 0 0 1.81 1.818c1.356 0 2.288-.909 2.712-3.127l1.223-6.387h1.912l-1.223 6.356c-.635 3.292-2.171 4.749-4.867 4.749-2.077 0-3.464-1.066-3.464-3.37a9.227 9.227 0 0 1 .149-1.5l1.191-6.23h1.912z" transform="translate(61.197 27.579)"/><path d="m252.228 41.975 2.092-10.933h2.187l1.928 5.078a28.1 28.1 0 0 1 1 3.425h.031a28.871 28.871 0 0 1 .486-3.7l.917-4.8h1.795l-2.092 10.933h-1.944l-1.975-5.172a25.465 25.465 0 0 1 -1.042-3.519l-.063.016c-.118 1.034-.345 2.382-.635 4l-.9 4.671h-1.779z" transform="translate(63.328 27.579)"/><path d="m264.736 32.7h-3.056l.329-1.654h8.017l-.326 1.654h-3.072l-1.763 9.271h-1.912z" transform="translate(65.788 27.579)"/></g></svg>